<?xml version="1.0" encoding="UTF-8"?>
<svg id="Layer_1" data-name="Layer 1" xmlns="http://www.w3.org/2000/svg" viewBox="0 0 1000 1000">
  <defs>
    <style>
      .cls-1 {
        fill: none;
      }

      .cls-2 {
        fill: #494c4d;
      }
    </style>
  </defs>
  <rect class="cls-1" width="1000" height="1000"/>
  <g>
    <path class="cls-2" d="M127.64,512.79l.02.76c.18,8.51,7.12,14.93,15.59,14.93h.34c8.63-.18,15.47-7.69,15.3-16.32-.18-8.63-7.48-14.89-15.94-15.31-8.63.18-15.48,7.31-15.31,15.94Z"/>
    <path class="cls-2" d="M745.43,830.39l-103.29-32.01c-8.25-2.56-17,2.04-19.55,10.3-2.56,8.24,2.05,16.99,10.3,19.55l103.27,32.01c1.54.48,3.11.71,4.64.71,6.66,0,12.84-4.3,14.92-11,2.56-8.25-2.05-17-10.29-19.55Z"/>
    <path class="cls-2" d="M724.15,878.78c-4.14,5-7.42,10.6-9.76,16.62-1.99,5.12-3.26,10.54-3.79,16.07l-37.84-3.66c-8.51-.93-16.22,5.45-17.05,14.05-.83,8.58,5.45,16.22,14.05,17.05l56.02,5.42c.5.05,1.01.08,1.5.08,4.52,0,8.83-1.95,11.82-5.41,3.32-3.83,4.56-9.03,3.36-13.95-.88-3.56-1.91-10.67,1.07-18.33,1.13-2.9,2.72-5.6,4.72-8.03,5.49-6.65,4.56-16.5-2.09-22-6.65-5.48-16.49-4.56-22,2.09Z"/>
    <path class="cls-2" d="M695.89,966.5l-45.72-22.63c-78-38.58-88.01-43.54-95.36-49.02-5.9-4.39-11.35-8.7-16.62-12.86-21.47-16.94-41.75-32.94-75.54-42.11-13.48-3.66-24.64-5-34.47-6.19-12.66-1.52-23.58-2.83-38.58-8.52-21.19-8.03-40.61-21.16-57.74-38.99-5.08-5.29-13.19-6.33-19.44-2.49-12.36,7.58-23.76,16.6-33.89,26.82-9.75,9.84-18.39,20.86-25.68,32.75-3.49,5.69-6.68,11.6-9.57,17.68-8.94-9.5-18.37-18.56-28.18-27.08-6.52-5.66-16.4-4.96-22.05,1.56-.6.7-.85,1.54-1.3,2.3-.18.23-.45.35-.62.6-3.32,4.79-7.06,9.31-11.15,13.43-4.98,5.02-10.49,9.43-16.4,13.27-.46-.01-.92.05-1.38.05-5.79-6.48-12.33-12.2-19.62-17.03-20.58-13.62-41.5-16.74-55.41-16.97h-.26c-8.51,0-15.48,6.83-15.62,15.37-.14,8.63,6.74,15.73,15.37,15.88,9.1.14,22.43,2.29,35.77,10.2-21.79,8.99-36,23.78-43.01,32.71-5.33,6.79-4.14,16.61,2.65,21.93,2.86,2.25,6.26,3.33,9.64,3.33,4.63,0,9.22-2.05,12.3-5.98,4.72-6.01,14.18-15.61,28.15-21.98-1.72,5.68-3.07,11.78-3.27,18.72-.23,7.7.79,15.42,3.01,22.93,2.01,6.8,8.23,11.21,14.98,11.21,1.46,0,2.96-.21,4.43-.65,8.28-2.44,13.01-11.14,10.56-19.41-1.28-4.34-1.87-8.77-1.74-13.16.31-10.71,4.72-19.06,8.49-24.31,12.41-6.32,23.79-14.26,33.57-24.12,1.56-1.57,2.77-3.47,4.25-5.12,10.56,10.05,20.74,20.53,29.98,31.76,3.64,4.43,9.42,6.55,15.05,5.41,5.63-1.09,10.21-5.18,11.92-10.66,3.95-12.58,9.37-24.54,16.11-35.54,6.03-9.84,13.18-18.95,21.23-27.08,5.56-5.61,11.59-10.79,18.01-15.47,18.02,16.58,38.08,29.11,59.78,37.35,18.57,7.04,32.49,8.71,45.94,10.33,9.63,1.16,18.73,2.25,30.01,5.31,27.63,7.5,43.85,20.29,64.37,36.49,5.48,4.33,11.15,8.8,17.29,13.38,9.63,7.17,16.46,10.56,100.19,51.98l45.7,22.61c2.23,1.11,4.59,1.62,6.92,1.62,5.75,0,11.29-3.19,14.02-8.69,3.83-7.74.66-17.11-7.06-20.94Z"/>
    <path class="cls-2" d="M104.09,606.88c2-4.73,4.83-8.6,8.42-11.49,10.5-8.48,24.98-6.05,30.43-5.16,15.82,2.64,25.74,13.77,38.31,27.86,11.17,12.52,15.24,21.97,20.38,33.93,4.24,9.87,9.06,21.06,18.31,35.26,9.23,14.18,20.25,27.47,32.87,39.64-4.55,6.03-9.42,11.81-14.55,17.29-12.31,13.16-26.37,24.84-41.8,34.72-7.27,4.65-9.39,14.32-4.74,21.58,2.98,4.66,8.03,7.2,13.18,7.2,2.88,0,5.8-.79,8.41-2.46,17.62-11.28,33.7-24.64,47.78-39.7,9.32-9.96,17.89-20.81,25.48-32.23,4.36-6.57,3.14-15.37-2.85-20.5-14.84-12.73-27.49-27.06-37.59-42.6-7.8-11.97-11.86-21.42-15.79-30.56-5.52-12.82-11.22-26.07-25.76-42.39-13.98-15.67-29.82-33.44-56.51-37.89-22.43-3.73-40.96.2-55.17,11.67-3.27,2.63-6.22,5.6-8.84,8.87-8.22-5.94-12.79-13.15-11.32-18.94,1.99-7.87,13.72-16,17.31-17.81,4.29-1.95,7.48-5.72,8.67-10.28,2.29-8.73,9.25-35.29,23.11-45.42,28.65-20.93,73.37-8.55,112.82,2.33,3.95,1.09,7.77,2.13,11.55,3.15-3.14,2.47-6.21,5.04-9.38,7.46-6.87,5.23-8.19,15.04-2.96,21.9,3.07,4.04,7.73,6.16,12.44,6.16,3.3,0,6.63-1.05,9.45-3.2,37.23-28.37,72.41-60.11,104.55-94.35,27.66-29.46,51.56-54.91,76-93.59,21.14-33.46,31.11-58.76,39.91-81.08,9.65-24.48,17.98-45.61,38.76-74.94,8.91-12.58,16.1-24.32,22.44-34.68,8.61-14.07,16.04-26.21,23.19-32.45,6.5-5.68,7.17-15.55,1.5-22.05-5.67-6.49-15.55-7.16-22.05-1.5-10.75,9.39-19.34,23.42-29.29,39.67-6.08,9.94-12.98,21.21-21.29,32.93-22.96,32.43-32.37,56.28-42.33,81.55-8.7,22.06-17.69,44.87-37.25,75.84-22.85,36.16-45.8,60.59-72.36,88.89-19.83,21.13-40.97,41.13-62.94,60.05-1.81-1.49-3.87-2.71-6.32-3.27-7.86-1.8-16.37-4.16-25.31-6.63-43.99-12.14-98.72-27.27-139.57,2.56-19.74,14.42-28.97,41.37-33.24,56.55-8.83,5.78-23.41,17.57-27.71,34.52-6.12,24.2,10.47,49.08,41.27,61.91,7.94,3.3,17.07-.43,20.4-8.36Z"/>
    <path class="cls-2" d="M541.68,185.31c2.66,1.76,5.65,2.6,8.61,2.6,5.07,0,10.03-2.46,13.04-7,25.99-39.23,72.88-92.42,148.72-123.02,36.01-14.53,74.33-22.19,113.91-22.77,8.63-.13,15.52-7.23,15.4-15.85-.13-8.64-7.73-15.45-15.85-15.4-43.44.64-85.55,9.07-125.14,25.05-83.28,33.59-134.65,91.81-163.08,134.74-4.77,7.19-2.8,16.89,4.39,21.65Z"/>
    <path class="cls-2" d="M776.43,57.07c-8.5,1.5-14.18,9.59-12.69,18.09,1.5,8.5,9.54,14.2,18.09,12.69,18.46-3.24,37.28-5.08,55.95-5.46,29.05-.62,57.97,2.25,86.26,8.45,1.13.25,2.25.37,3.36.37,7.18,0,13.64-4.97,15.24-12.28,1.85-8.43-3.48-16.76-11.91-18.61-30.71-6.74-62.29-9.82-93.6-9.19-20.27.42-40.7,2.42-60.71,5.94Z"/>
    <path class="cls-2" d="M929.74,162.01c11.52-.7,25.86-1.57,28.75-15.7.97-4.77-.11-9.74-3.03-14.02-9.31-13.6-46.49-25.41-69.92-29.44-26.65-4.61-54.01-3.47-81.28,3.36-8.37,2.1-13.46,10.58-11.37,18.95,2.11,8.38,10.59,13.5,18.95,11.37,23.03-5.75,46.03-6.74,68.38-2.88,3.59.62,7.1,1.34,10.48,2.14-20.45,4.85-40.21,13.38-58.91,25.45-4.19,2.7-6.83,7.23-7.13,12.2-.3,4.97,1.79,9.77,5.62,12.95,10.12,8.4,21.26,15.16,33.07,20.07,1.21.5,2.4.97,3.58,1.43-1.79.3-3.47.56-5.05.82-10.63,1.67-19.81,3.12-28.11,12.44-7.99,9-9.09,18.5-9.88,25.44-.68,5.88-1.14,8.87-4.09,12.52-3.03,3.73-7.54,6.58-13.41,8.47-4.83,1.55-8.61,5.34-10.13,10.17-1.53,4.84-.61,10.11,2.45,14.14,5.77,7.61,5.61,18.12-.37,24.99-5.38,6.18-14.69,8.2-22.59,4.91-6.9-2.86-14.92-.43-19.05,5.84-4.12,6.26-3.21,14.58,2.17,19.81,2.6,2.53,8.74,9.48,9.54,19.4.57,7.19-.31,12.05-2.62,14.42-3.43,3.49-14.22,5.2-26.57-2.3-5.6-3.42-12.73-2.96-17.86,1.14-5.13,4.09-7.15,10.95-5.07,17.17,9.1,27.21,9.95,52.71,2.46,73.75-7.25,20.36-22.98,40.74-30.59,50.61-4.49,5.79-8.31,10.23-11.74,14.21-7.32,8.51-13.65,15.86-20.39,29-8.38,16.28-11.19,29.4-13.25,38.99-.46,2.12-.88,4.1-1.34,5.94-5.9,23.6-25.38,46.47-57.92,68.02-18.68,2.34-37.56,1.95-56.15-1.18-19.77-3.33-38.82-9.67-56.63-18.88-7.7-3.97-17.1-.95-21.06,6.71-3.96,7.67-.95,17.09,6.71,21.06,20.68,10.68,42.82,18.06,65.78,21.93,3.13.53,6.27.79,9.41,1.18,5.23,4.52,10.61,9.06,16.44,13.57,14.36,11.12,34.03,26.34,62.77,39.31,27.9,12.58,57.56,20.37,88.18,23.16.48.04.95.06,1.43.06,8,0,14.81-6.1,15.55-14.21.78-8.59-5.55-16.19-14.15-16.98-27.14-2.46-53.44-9.37-78.15-20.52-16.76-7.56-29.76-15.91-40.8-23.83,2.82-.3,5.65-.51,8.47-.91,2.23-.32,4.36-1.11,6.25-2.33,41.16-26.55,66.12-56.35,74.17-88.57.54-2.15,1.05-4.48,1.59-6.98,1.88-8.74,4.01-18.65,10.49-31.27,5.05-9.84,9.52-15.03,16.28-22.88,3.74-4.34,7.9-9.19,12.86-15.59,8.54-11.07,26.32-34.11,35.23-59.14,7.1-19.94,8.68-42.4,4.78-66.08,13.59.75,26.37-3.32,35.2-12.36,8.89-9.11,12.72-22.15,11.38-38.73-.33-4.13-1.07-7.98-2.09-11.54,9.3-2.59,17.84-7.8,24.45-15.4,11.48-13.21,14.92-31.34,10.12-47.69,4.62-3.07,8.64-6.72,12.05-10.93,8.81-10.87,10.04-21.55,10.86-28.62.61-5.3.9-6.8,2.19-8.24.69-.79,1.67-1.1,9.62-2.35,7.05-1.11,16.71-2.64,30.67-6.49,23.35-6.43,45.4-12.51,43.24-30.44-1.75-14.47-16.27-15.74-25.87-16.57-9.61-.84-24.13-2.1-39.44-8.46-1.57-.66-3.14-1.35-4.68-2.1,12.79-5.76,25.98-9.67,39.44-11.67,7.55-1.12,14.24-1.52,19.61-1.84Z"/>
  </g>
</svg>