<?xml version="1.0" encoding="UTF-8"?>
<svg id="Layer_1" data-name="Layer 1" xmlns="http://www.w3.org/2000/svg" viewBox="0 0 1000 1000">
  <defs>
    <style>
      .cls-1 {
        fill: none;
      }

      .cls-2 {
        fill: #494c4d;
      }
    </style>
  </defs>
  <rect class="cls-1" width="1000" height="1000"/>
  <g>
    <path class="cls-2" d="M278.12,247.41c.17,0,.34,0,.51,0,8.63-.27,15.4-7.84,15.13-16.47-.27-8.63-7.31-15.77-16.1-15.14-8.62.27-15.4,7.47-15.14,16.1l.02.75c.26,8.45,7.17,14.77,15.57,14.77Z"/>
    <path class="cls-2" d="M345,266c.17,0,.34,0,.51,0,8.62-.27,15.39-7.84,15.13-16.47-.27-8.62-7.68-15.59-16.09-15.14-8.63.26-15.4,7.46-15.14,16.09l.02.76c.26,8.45,7.17,14.78,15.57,14.78Z"/>
    <path class="cls-2" d="M411.68,299.49h.34c8.63-.18,15.47-7.69,15.3-16.32-.18-8.62-7.56-15.23-15.95-15.3-8.63.18-15.48,7.32-15.3,15.95l.02.75c.18,8.51,7.12,14.93,15.59,14.93Z"/>
    <path class="cls-2" d="M974.51,260.47c-.02-.87.05-1.71-.1-2.55-.2-1.1-.67-2.08-1.1-3.12-.35-.82-.6-1.64-1.08-2.38-.57-.89-1.35-1.6-2.1-2.38-.68-.7-1.3-1.41-2.11-1.97-.25-.17-.39-.44-.65-.61-64.49-39.72-152.47-21.76-223.19-7.3-9.4,1.92-18.55,3.79-27.34,5.47-98.09,18.68-172.58-10.76-254.23-60.71-61.1-37.37-126.69-72.65-201.11-67.02l5.08-19.59c2.17-8.35-2.85-16.88-11.2-19.04-8.37-2.17-16.88,2.85-19.04,11.2l-85.57,330.02s0,.02,0,.02l-23.78,91.7s0,.02,0,.03L25.98,901.69c-2.17,8.35,2.85,16.88,11.2,19.04,1.31.34,2.63.5,3.93.5,6.95,0,13.29-4.67,15.11-11.7l98.24-378.89c48.3-4.45,100.37,9.9,162.95,45.18,16.14,9.1,31.46,19.64,47.68,30.79,28.28,19.45,57.53,39.57,91.36,51.35,22.4,7.8,45.42,10.77,68.29,10.77,34.8,0,69.26-6.87,100.73-14.04,79.77-18.17,162.7-32.58,223.25,7.13.04.02.08.02.11.05,1.62,1.24,3.5,2.19,5.6,2.74,1.31.34,2.63.51,3.93.51,6.95,0,13.29-4.67,15.11-11.71l100.78-388.69c.07-.25-.01-.5.04-.75.25-1.17.22-2.31.19-3.49ZM722.67,276.33c8.93-1.7,18.22-3.6,27.76-5.55,64.57-13.19,137.23-28.03,190.55-2.16l-16.16,62.33c-60.94-22.65-135.93-7.44-197.34,5.12-9.39,1.91-18.54,3.78-27.34,5.46-70.36,13.4-132.31,3.26-204.75-33.17l15.92-61.38c44.25,20.73,92.7,35.45,148.29,35.45,20.06,0,41.05-1.9,63.08-6.1ZM899.71,427.79c-61.24-23.61-137.07-8.23-199.07,4.44-9.41,1.92-18.55,3.79-27.35,5.47-77.36,14.74-140.03-.53-203.11-32.1l17.17-66.21c53.93,26.23,104.03,39.02,155.33,39.02,20.79,0,41.79-2.08,63.32-6.18,8.93-1.7,18.21-3.6,27.76-5.55,61.49-12.58,130.62-26.66,183.22-5.4l-17.24,66.5ZM873.74,527.96c-62.68-28.98-142.74-12.71-208.07.65-9.41,1.93-18.58,3.8-27.39,5.48-98.08,18.69-172.58-10.75-254.23-60.7-59.98-36.68-124.35-71.48-197.29-67.29l16.29-62.85c72.28-12.67,138.25,22.82,199.7,60.4,61.35,37.53,129.26,70.85,213.28,70.84,20.07,0,41.07-1.9,63.1-6.1,8.93-1.7,18.22-3.6,27.76-5.55,62.18-12.7,132.14-26.98,184.95-4.7l-18.1,69.81ZM446.28,211.58c11.86,7.26,24.07,14.24,36.49,20.97l-40.93,157.86c-7.55-4.3-15.13-8.73-22.78-13.41-62.85-38.44-130.44-74.76-207.51-66.53l41.56-160.29c69.74-9.52,133.57,24.94,193.17,61.39ZM618.54,624.22c-47.94,10.94-103.14,21.16-151.81,4.23-29.86-10.39-56.12-28.46-83.92-47.58-16.07-11.05-32.68-22.48-50.04-32.27-41.48-23.37-102.41-52.49-170.01-49.92l15.69-60.52c68.26-7.69,130.84,26.14,189.29,61.89,61.35,37.53,129.26,70.85,213.28,70.84,20.07,0,41.07-1.9,63.1-6.1,8.95-1.7,18.25-3.61,27.8-5.56,65.94-13.47,140.24-28.52,193.8-.35l-17.36,66.95c-68.32-33.85-153.89-18.91-229.82-1.61Z"/>
  </g>
</svg>